HIERARCHY
ROOT Hips
{
	OFFSET 0.000000 83.214638 0.000000
	CHANNELS 6 Xposition Yposition Zposition Xrotation Yrotation Zrotation
	JOINT Pelvis
	{
		OFFSET 0.000000 0.000000 0.000000
		CHANNELS 3 Xrotation Yrotation Zrotation
		JOINT LeftUpLeg
		{
			OFFSET 8.479700 -4.795502 -0.379100
			CHANNELS 3 Xrotation Yrotation Zrotation
			JOINT LeftLeg
			{
				OFFSET 0.024144 -32.555107 0.112900
				CHANNELS 3 Xrotation Yrotation Zrotation
				JOINT LeftFoot
				{
					OFFSET -0.024144 -32.638630 -3.012600
					CHANNELS 3 Xrotation Yrotation Zrotation
					JOINT LeftToeBase
					{
						OFFSET 0.970200 -13.225400 11.864200
						CHANNELS 3 Xrotation Yrotation Zrotation
						End Site
						{
							OFFSET 0.000000 12.319262 0.000000
						}
					}
					JOINT LFootTongue
					{
						OFFSET 1.142400 -1.059800 6.665200
						CHANNELS 3 Xrotation Yrotation Zrotation
						End Site
						{
							OFFSET 0.000000 12.319262 0.000000
						}
					}
				}
				JOINT LeftPantLeg
				{
					OFFSET 0.918482 -16.533964 -2.284700
					CHANNELS 3 Xrotation Yrotation Zrotation
					End Site
					{
						OFFSET 0.350399 24.744368 0.000000
					}
				}
			}
		}
		JOINT RightUpLeg
		{
			OFFSET -8.479700 -4.795502 -0.379100
			CHANNELS 3 Xrotation Yrotation Zrotation
			JOINT RightLeg
			{
				OFFSET -0.023144 -32.555092 0.112900
				CHANNELS 3 Xrotation Yrotation Zrotation
				JOINT RightFoot
				{
					OFFSET 0.023144 -32.638641 -3.012700
					CHANNELS 3 Xrotation Yrotation Zrotation
					JOINT RightToeBase
					{
						OFFSET -0.970200 -13.225400 11.864200
						CHANNELS 3 Xrotation Yrotation Zrotation
						End Site
						{
							OFFSET 0.000000 12.319244 0.000000
						}
					}
					JOINT RFootTongue
					{
						OFFSET -1.142200 -1.059800 6.665200
						CHANNELS 3 Xrotation Yrotation Zrotation
						End Site
						{
							OFFSET 0.000000 12.319243 0.000000
						}
					}
				}
				JOINT RightPantLeg
				{
					OFFSET -0.919482 -16.533978 -2.284800
					CHANNELS 3 Xrotation Yrotation Zrotation
					End Site
					{
						OFFSET -0.350400 24.744419 0.000000
					}
				}
			}
		}
	}
	JOINT Spine
	{
		OFFSET 0.000000 7.722000 1.166200
		CHANNELS 3 Xrotation Yrotation Zrotation
		JOINT Spine1
		{
			OFFSET 0.000000 12.024101 0.248800
			CHANNELS 3 Xrotation Yrotation Zrotation
			JOINT Spine2
			{
				OFFSET 0.000000 11.502998 -0.491200
				CHANNELS 3 Xrotation Yrotation Zrotation
				JOINT Neck
				{
					OFFSET 0.000000 18.430702 -3.123100
					CHANNELS 3 Xrotation Yrotation Zrotation
					JOINT Head
					{
						OFFSET 0.000000 9.051102 1.034000
						CHANNELS 3 Xrotation Yrotation Zrotation
						JOINT HairB
						{
							OFFSET 0.208400 24.786102 24.822300
							CHANNELS 3 Xrotation Yrotation Zrotation
							End Site
							{
								OFFSET 0.000000 32.263779 0.000000
							}
						}
						JOINT HairA
						{
							OFFSET -7.081100 24.428299 23.196600
							CHANNELS 3 Xrotation Yrotation Zrotation
							End Site
							{
								OFFSET 0.000000 32.263779 0.000000
							}
						}
						JOINT Hat
						{
							OFFSET 16.728800 15.048294 -15.439601
							CHANNELS 3 Xrotation Yrotation Zrotation
							End Site
							{
								OFFSET 0.000000 32.263779 0.000000
							}
						}
					}
				}
				JOINT LeftShoulder
				{
					OFFSET 6.197800 13.665199 -4.064700
					CHANNELS 3 Xrotation Yrotation Zrotation
					JOINT LeftArm
					{
						OFFSET 7.778100 -0.187103 -1.709300
						CHANNELS 3 Xrotation Yrotation Zrotation
						JOINT LeftForeArm
						{
							OFFSET 22.049376 0.000000 0.000000
							CHANNELS 3 Xrotation Yrotation Zrotation
							JOINT LeftHand
							{
								OFFSET 23.009392 0.000000 0.000000
								CHANNELS 3 Xrotation Yrotation Zrotation
								JOINT LeftHandThumb1
								{
									OFFSET 3.507191 -2.063065 3.133727
									CHANNELS 3 Xrotation Yrotation Zrotation
									JOINT LeftHandThumb2
									{
										OFFSET 3.101337 -1.790558 1.790558
										CHANNELS 3 Xrotation Yrotation Zrotation
										JOINT LeftHandThumb3
										{
											OFFSET 3.058640 -1.765907 1.765906
											CHANNELS 3 Xrotation Yrotation Zrotation
											End Site
											{
												OFFSET -0.415260 3.926476 -0.049563
											}
										}
									}
								}
								JOINT LeftHandIndex1
								{
									OFFSET 11.334419 -0.901459 3.706815
									CHANNELS 3 Xrotation Yrotation Zrotation
									JOINT LeftHandIndex2
									{
										OFFSET 3.283112 0.000000 0.000000
										CHANNELS 3 Xrotation Yrotation Zrotation
										JOINT LeftHandIndex3
										{
											OFFSET 3.323853 0.000000 0.000000
											CHANNELS 3 Xrotation Yrotation Zrotation
											End Site
											{
												OFFSET -1.135597 3.097809 0.402452
											}
										}
									}
								}
								JOINT LeftHandMiddle1
								{
									OFFSET 11.335861 0.000000 0.000000
									CHANNELS 3 Xrotation Yrotation Zrotation
									JOINT LeftHandMiddle2
									{
										OFFSET 3.410492 0.000000 0.000000
										CHANNELS 3 Xrotation Yrotation Zrotation
										JOINT LeftHandMiddle3
										{
											OFFSET 3.312172 0.000000 0.000000
											CHANNELS 3 Xrotation Yrotation Zrotation
											End Site
											{
												OFFSET -1.150200 3.080154 0.400270
											}
										}
									}
								}
								JOINT LeftHandRing1
								{
									OFFSET 11.514786 -0.013176 -3.003090
									CHANNELS 3 Xrotation Yrotation Zrotation
									JOINT LeftHandRing2
									{
										OFFSET 3.053307 0.000000 0.000000
										CHANNELS 3 Xrotation Yrotation Zrotation
										JOINT LeftHandRing3
										{
											OFFSET 3.295807 0.000000 0.000000
											CHANNELS 3 Xrotation Yrotation Zrotation
											End Site
											{
												OFFSET -1.281006 3.013344 0.375733
											}
										}
									}
								}
								JOINT LeftHandPinky1
								{
									OFFSET 10.518692 -0.960396 -5.730441
									CHANNELS 3 Xrotation Yrotation Zrotation
									JOINT LeftHandPinky2
									{
										OFFSET 2.861649 0.000000 0.000000
										CHANNELS 3 Xrotation Yrotation Zrotation
										JOINT LeftHandPinky3
										{
											OFFSET 2.863380 0.000000 0.000000
											CHANNELS 3 Xrotation Yrotation Zrotation
											End Site
											{
												OFFSET -0.843597 2.711159 0.369971
											}
										}
									}
								}
							}
							JOINT LSleeve
							{
								OFFSET 6.676277 -0.344902 -1.011730
								CHANNELS 3 Xrotation Yrotation Zrotation
								End Site
								{
									OFFSET 0.000000 14.885353 0.000000
								}
							}
						}
					}
				}
				JOINT RightShoulder
				{
					OFFSET -6.197800 13.665199 -4.064700
					CHANNELS 3 Xrotation Yrotation Zrotation
					JOINT RightArm
					{
						OFFSET -7.778100 -0.187103 -1.709300
						CHANNELS 3 Xrotation Yrotation Zrotation
						JOINT RightForeArm
						{
							OFFSET -22.049376 0.000000 0.000000
							CHANNELS 3 Xrotation Yrotation Zrotation
							JOINT RightHand
							{
								OFFSET -23.009392 0.000000 0.000000
								CHANNELS 3 Xrotation Yrotation Zrotation
								JOINT RightHandThumb1
								{
									OFFSET -3.507191 -2.063065 3.133727
									CHANNELS 3 Xrotation Yrotation Zrotation
									JOINT RightHandThumb2
									{
										OFFSET -3.101337 -1.790558 1.790558
										CHANNELS 3 Xrotation Yrotation Zrotation
										JOINT RightHandThumb3
										{
											OFFSET -3.058640 -1.765907 1.765906
											CHANNELS 3 Xrotation Yrotation Zrotation
											End Site
											{
												OFFSET 0.415260 3.926476 -0.049563
											}
										}
									}
								}
								JOINT RightHandIndex1
								{
									OFFSET -11.334419 -0.901459 3.706815
									CHANNELS 3 Xrotation Yrotation Zrotation
									JOINT RightHandIndex2
									{
										OFFSET -3.283112 0.000000 0.000000
										CHANNELS 3 Xrotation Yrotation Zrotation
										JOINT RightHandIndex3
										{
											OFFSET -3.323853 0.000000 0.000000
											CHANNELS 3 Xrotation Yrotation Zrotation
											End Site
											{
												OFFSET 1.135597 3.097809 0.402452
											}
										}
									}
								}
								JOINT RightHandMiddle1
								{
									OFFSET -11.335861 0.000000 0.000000
									CHANNELS 3 Xrotation Yrotation Zrotation
									JOINT RightHandMiddle2
									{
										OFFSET -3.410492 0.000000 0.000000
										CHANNELS 3 Xrotation Yrotation Zrotation
										JOINT RightHandMiddle3
										{
											OFFSET -3.312172 0.000000 0.000000
											CHANNELS 3 Xrotation Yrotation Zrotation
											End Site
											{
												OFFSET 1.150200 3.080154 0.400270
											}
										}
									}
								}
								JOINT RightHandRing1
								{
									OFFSET -11.514786 -0.013176 -3.003090
									CHANNELS 3 Xrotation Yrotation Zrotation
									JOINT RightHandRing2
									{
										OFFSET -3.053307 0.000000 0.000000
										CHANNELS 3 Xrotation Yrotation Zrotation
										JOINT RightHandRing3
										{
											OFFSET -3.295807 0.000000 0.000000
											CHANNELS 3 Xrotation Yrotation Zrotation
											End Site
											{
												OFFSET 1.281006 3.013344 0.375733
											}
										}
									}
								}
								JOINT RightHandPinky1
								{
									OFFSET -10.518692 -0.960396 -5.730441
									CHANNELS 3 Xrotation Yrotation Zrotation
									JOINT RightHandPinky2
									{
										OFFSET -2.861649 0.000000 0.000000
										CHANNELS 3 Xrotation Yrotation Zrotation
										JOINT RightHandPinky3
										{
											OFFSET -2.863380 0.000000 0.000000
											CHANNELS 3 Xrotation Yrotation Zrotation
											End Site
											{
												OFFSET 0.843597 2.711159 0.369971
											}
										}
									}
								}
							}
							JOINT RSleeve
							{
								OFFSET -6.676277 -0.344902 -1.011730
								CHANNELS 3 Xrotation Yrotation Zrotation
								End Site
								{
									OFFSET 0.000000 14.885353 0.000000
								}
							}
						}
					}
				}
				JOINT Backpack
				{
					OFFSET 0.000000 -2.471497 36.677502
					CHANNELS 3 Xrotation Yrotation Zrotation
					End Site
					{
						OFFSET 0.000000 20.427315 0.000000
					}
				}
				JOINT Hood
				{
					OFFSET 0.000000 18.754097 -10.431000
					CHANNELS 3 Xrotation Yrotation Zrotation
					JOINT Hood1
					{
						OFFSET 0.000000 -5.011002 -7.685901
						CHANNELS 3 Xrotation Yrotation Zrotation
						End Site
						{
							OFFSET 0.000000 9.175140 0.000000
						}
					}
				}
				JOINT LHoodieString
				{
					OFFSET 5.250500 16.397697 3.089900
					CHANNELS 3 Xrotation Yrotation Zrotation
					JOINT LHoodieString1
					{
						OFFSET 0.257700 -6.364304 3.694600
						CHANNELS 3 Xrotation Yrotation Zrotation
						JOINT LHoodieString2
						{
							OFFSET 0.000000 -9.643799 2.679100
							CHANNELS 3 Xrotation Yrotation Zrotation
							End Site
							{
								OFFSET 0.000000 10.009018 0.000000
							}
						}
					}
				}
				JOINT RHoodieString
				{
					OFFSET -5.250500 16.397697 3.089900
					CHANNELS 3 Xrotation Yrotation Zrotation
					JOINT RHoodieString1
					{
						OFFSET -0.257700 -6.364304 3.694600
						CHANNELS 3 Xrotation Yrotation Zrotation
						JOINT RHoodieString2
						{
							OFFSET 0.000000 -9.643799 2.679100
							CHANNELS 3 Xrotation Yrotation Zrotation
							End Site
							{
								OFFSET 0.000000 10.009018 0.000000
							}
						}
					}
				}
			}
			JOINT LBackpack_Strap
			{
				OFFSET 15.223200 -7.719803 -6.610900
				CHANNELS 3 Xrotation Yrotation Zrotation
				End Site
				{
					OFFSET 0.000000 16.040596 0.000000
				}
			}
			JOINT RBackpack_Strap
			{
				OFFSET -15.223000 -7.719803 -6.610900
				CHANNELS 3 Xrotation Yrotation Zrotation
				End Site
				{
					OFFSET 0.000000 16.040596 0.000000
				}
			}
		}
	}
	JOINT BoyFacialAnim_Joint
	{
		OFFSET 1.000000 -82.208099 -1.550900
		CHANNELS 3 Xrotation Yrotation Zrotation
		End Site
		{
			OFFSET 0.000000 30.012791 0.000000
		}
	}
}
MOTION
Frames: 4
Frame Time: 0.016667
0.460211 81.901672 -0.765685 2.912554 -28.989362 1.159790 -0.000000 -0.000002 0.000000 -17.358159 18.227330 10.849517 16.415094 13.225066 -0.948708 -1.369201 -4.085627 -4.997468 -0.000000 0.000000 0.000000 -0.000000 0.000000 0.000000 -0.000000 -0.000000 0.000000 -8.098649 -1.527005 -9.108248 10.348904 9.503769 0.826210 -5.503977 -0.867053 7.453359 0.000000 0.000002 -0.000000 0.000000 0.000002 -0.000000 0.000001 -0.000002 0.000001 7.836173 -0.359608 -2.651417 1.099253 -0.880534 2.383668 1.108682 -0.590407 2.446525 -3.841323 18.019004 -6.496515 -6.333202 13.021593 0.301389 0.000000 -0.000000 0.000000 0.000000 -0.000000 0.000000 0.000000 -0.000000 0.000000 -0.055834 -8.757996 -0.067358 -55.250804 0.329420 -41.449379 11.606998 -65.826016 13.026203 -50.191044 12.352943 4.610826 17.563633 -5.693986 -12.929200 10.852352 26.148367 8.654069 0.000002 -0.000000 -0.000001 13.978271 1.203587 -55.006034 0.372681 1.163877 -65.441887 0.000000 -0.000001 -0.000000 7.502558 1.175439 -63.755274 1.809514 1.478261 -64.569870 0.000002 0.000000 0.000004 8.574325 2.179103 -75.148992 -0.208034 1.014706 -57.856804 -0.000002 0.000000 -0.000002 10.030096 13.637013 -84.750237 0.878833 0.065157 -64.595496 0.000000 0.000000 0.000002 0.000002 0.000000 0.000003 4.849285 7.760131 5.560458 -0.933510 -2.176872 61.845649 11.299288 18.943468 -3.987587 -0.459216 6.620137 5.830279 15.788510 -2.734488 -17.205894 -2.198314 -31.113554 7.361207 0.000001 -0.000001 0.000002 2.371236 -3.658865 8.486734 -2.131701 -2.469823 18.672206 -0.000001 0.000000 0.000000 -1.983668 -5.667158 13.658573 0.267054 -5.081398 26.987165 -0.000002 0.000000 -0.000000 -3.231390 -8.564186 11.751463 4.036739 -4.043075 33.257178 -0.000000 -0.000001 0.000000 -6.483202 -11.360894 23.256424 10.728497 -2.555681 34.821240 -0.000001 -0.000001 0.000002 0.000000 -0.000001 0.000001 0.000001 -0.000000 -0.000000 0.000001 -0.000000 -0.000000 0.000001 -0.000000 -0.000000 0.000001 -0.000000 -0.000000 0.000001 -0.000000 -0.000000 -0.000000 -0.000002 0.000000 0.000001 -0.000000 -0.000000 0.000001 -0.000000 -0.000000 -0.000000 -0.000002 0.000000 0.000000 0.000000 -0.000000 0.000000 0.000000 -0.000000 -0.000000 -0.000002 0.000000 
0.446862 81.900246 -0.753429 2.996465 -29.000700 1.200942 0.000000 0.000000 -0.000000 -17.426213 18.214871 10.859119 16.428792 13.224390 -0.951783 -1.383615 -4.084789 -5.000657 0.000000 -0.000000 0.000000 0.000000 -0.000000 0.000000 0.000000 0.000000 0.000000 -8.167590 -1.527232 -9.097804 10.362646 9.510864 0.823952 -5.526155 -0.856744 7.441722 0.000000 0.000000 0.000000 0.000000 0.000000 0.000000 -0.000000 0.000002 0.000000 7.836179 -0.359616 -2.651258 1.099093 -0.876626 2.383000 1.108490 -0.585946 2.445762 -3.844998 18.060120 -6.523144 -6.313229 13.058514 0.301026 0.000000 0.000000 -0.000000 0.000000 0.000000 -0.000000 0.000000 0.000000 -0.000000 -0.070038 -8.744135 -0.066000 -54.884340 0.118805 -41.197618 11.633684 -65.908826 13.202052 -50.544339 12.176056 4.648526 17.563635 -5.693986 -12.929207 10.852354 26.148368 8.654066 0.000001 -0.000000 0.000001 13.978270 1.203589 -55.006034 0.372679 1.163877 -65.441880 0.000000 0.000000 -0.000004 7.502558 1.175443 -63.755274 1.809515 1.478263 -64.569876 0.000001 -0.000001 -0.000000 8.574326 2.179103 -75.148992 -0.208035 1.014706 -57.856798 0.000001 0.000002 -0.000002 10.030096 13.637014 -84.750244 0.878832 0.065156 -64.595496 0.000001 0.000000 -0.000002 -0.000000 0.000002 0.000001 4.841093 7.792208 5.599182 -0.876150 -2.203281 61.799736 11.304726 18.977119 -3.997556 -0.474806 6.723937 5.694331 15.788508 -2.734489 -17.205890 -2.198321 -31.113550 7.361207 0.000001 0.000001 -0.000000 2.371239 -3.658867 8.486738 -2.131692 -2.469827 18.672192 -0.000001 0.000000 0.000002 -1.983657 -5.667155 13.658554 0.267042 -5.081396 26.987184 -0.000000 -0.000001 -0.000000 -3.231387 -8.564191 11.751485 4.036752 -4.043074 33.257178 -0.000001 -0.000001 0.000002 -6.483199 -11.360900 23.256442 10.728497 -2.555682 34.821254 0.000000 -0.000001 0.000002 0.000001 -0.000001 0.000001 0.000000 -0.000001 0.000000 0.000000 -0.000001 0.000000 0.000000 -0.000001 0.000000 0.000000 -0.000001 0.000000 0.000000 -0.000001 0.000000 -0.000000 0.000002 -0.000001 0.000000 -0.000001 0.000000 0.000000 -0.000001 0.000000 -0.000000 0.000002 -0.000001 -0.000000 0.000002 -0.000001 -0.000000 0.000002 -0.000001 0.000000 0.000000 -0.000000 
0.431026 81.897232 -0.740055 3.094734 -29.005409 1.243948 0.000000 0.000002 -0.000000 -17.505867 18.171838 10.875536 16.444478 13.228326 -0.956710 -1.396165 -4.068923 -5.023339 0.000000 0.000000 -0.000000 0.000000 0.000000 -0.000000 0.000000 0.000000 0.000000 -8.266179 -1.535227 -9.093739 10.394921 9.541341 0.816287 -5.543694 -0.849501 7.436330 0.000000 -0.000001 0.000000 0.000000 -0.000001 0.000000 -0.000000 -0.000000 -0.000000 7.836319 -0.356691 -2.651843 1.098787 -0.869318 2.381754 1.110465 -0.579788 2.444748 -3.800850 18.130554 -6.587807 -6.340686 13.102961 0.312260 0.000000 0.000000 -0.000000 0.000000 0.000000 -0.000000 0.000000 0.000000 -0.000000 -0.072281 -8.728852 -0.064793 -54.827561 0.180465 -41.050417 11.670592 -66.019106 13.220161 -50.602959 12.088227 4.574799 17.563632 -5.693990 -12.929207 10.852351 26.148370 8.654067 0.000000 -0.000001 -0.000000 13.978270 1.203584 -55.006037 0.372683 1.163877 -65.441873 -0.000001 -0.000001 0.000001 7.502559 1.175439 -63.755281 1.809512 1.478263 -64.569876 -0.000002 -0.000000 -0.000002 8.574325 2.179101 -75.148992 -0.208035 1.014706 -57.856804 -0.000001 -0.000000 -0.000000 10.030096 13.637014 -84.750237 0.878833 0.065157 -64.595496 0.000002 0.000000 -0.000000 0.000002 0.000001 0.000000 4.839186 7.844302 5.594993 -0.848535 -2.241865 61.787291 11.331116 18.903923 -3.971969 -0.529489 6.824013 5.581373 15.788508 -2.734488 -17.205890 -2.198319 -31.113550 7.361212 -0.000000 -0.000001 0.000001 2.371251 -3.658864 8.486757 -2.131695 -2.469831 18.672214 -0.000001 -0.000000 0.000003 -1.983646 -5.667158 13.658589 0.267037 -5.081397 26.987170 0.000001 -0.000000 0.000002 -3.231378 -8.564189 11.751466 4.036749 -4.043070 33.257195 -0.000000 -0.000000 0.000000 -6.483194 -11.360905 23.256451 10.728499 -2.555673 34.821237 -0.000001 -0.000001 0.000000 -0.000001 -0.000000 -0.000000 -0.000000 0.000003 0.000000 -0.000000 0.000003 0.000000 -0.000000 0.000003 0.000000 -0.000000 0.000003 0.000000 -0.000000 0.000003 -0.000000 -0.000001 0.000004 -0.000001 -0.000000 0.000003 0.000000 -0.000000 0.000003 -0.000000 -0.000001 0.000004 -0.000001 -0.000000 0.000001 -0.000000 -0.000000 0.000001 -0.000000 0.000000 0.000002 -0.000000 
0.415031 81.893311 -0.728073 3.192169 -29.002476 1.284848 0.000000 0.000001 -0.000000 -17.593579 18.109705 10.888917 16.482112 13.265443 -0.968002 -1.417788 -4.055199 -5.037218 -0.000000 -0.000000 0.000000 -0.000000 -0.000000 0.000000 0.000000 0.000000 -0.000000 -8.359411 -1.552227 -9.076738 10.429808 9.528759 0.811361 -5.569396 -0.847633 7.429591 0.000000 -0.000002 0.000000 0.000000 -0.000002 0.000000 -0.000001 -0.000000 0.000002 7.831495 -0.344492 -2.648022 1.104962 -0.859948 2.374746 1.116792 -0.570575 2.437569 -3.760158 18.197033 -6.652758 -6.378132 13.164525 0.327757 0.000000 0.000000 0.000000 0.000000 0.000000 0.000000 0.000000 0.000000 0.000000 -0.091587 -8.709456 -0.063620 -54.824016 0.285200 -40.971525 11.705623 -66.122542 13.259041 -50.558498 12.058921 4.470686 17.563632 -5.693988 -12.929207 10.852350 26.148370 8.654068 0.000002 -0.000000 -0.000001 13.978269 1.203589 -55.006034 0.372678 1.163878 -65.441887 -0.000001 0.000000 -0.000005 7.502558 1.175440 -63.755274 1.809514 1.478263 -64.569876 -0.000000 -0.000000 0.000000 8.574324 2.179105 -75.148992 -0.208037 1.014706 -57.856798 -0.000004 -0.000001 0.000001 10.030095 13.637014 -84.750237 0.878833 0.065159 -64.595496 -0.000000 0.000001 -0.000002 -0.000001 0.000001 0.000001 4.835597 7.900906 5.599399 -0.826515 -2.297774 61.813752 11.287214 18.781849 -4.000412 -0.510025 6.876272 5.554263 15.788508 -2.734488 -17.205894 -2.198318 -31.113550 7.361203 0.000002 -0.000000 -0.000002 2.371243 -3.658864 8.486735 -2.131700 -2.469827 18.672190 -0.000001 0.000000 0.000002 -1.983655 -5.667151 13.658573 0.267046 -5.081404 26.987146 0.000000 0.000000 -0.000002 -3.231368 -8.564188 11.751482 4.036730 -4.043072 33.257168 -0.000000 0.000000 -0.000003 -6.483183 -11.360896 23.256463 10.728492 -2.555679 34.821250 -0.000000 -0.000000 -0.000002 -0.000001 -0.000000 -0.000001 0.000001 0.000001 -0.000000 0.000001 0.000001 -0.000000 0.000001 0.000001 -0.000000 0.000001 0.000001 -0.000000 0.000001 0.000001 -0.000000 -0.000000 0.000002 -0.000001 0.000001 0.000001 -0.000000 0.000001 0.000001 -0.000000 -0.000000 0.000002 -0.000001 0.000001 0.000001 0.000000 0.000001 0.000001 0.000000 0.000000 0.000001 -0.000000 
